<svg width="62" height="18" viewBox="0 0 62 18" fill="none" xmlns="http://www.w3.org/2000/svg">
<path d="M4.5 17.5H2.5C1.39543 17.5 0.5 16.6046 0.5 15.5V2.5C0.5 1.39543 1.39543 0.5 2.5 0.5H4.5" stroke="#1A1B1C"/>
<path d="M13.3 14.5V4.7H11.438V14.5H13.3ZM16.7384 14.5V7.598L20.9944 14.5H22.9824V4.7H21.1344V11.616L16.8924 4.7H14.8904V14.5H16.7384ZM28.5812 14.5V6.296H31.5352V4.7H23.7652V6.296H26.7332V14.5H28.5812ZM39.2845 11.882C39.2145 10.986 38.7805 10.258 38.1085 9.838C38.9205 9.418 39.4245 8.732 39.4245 7.724C39.4245 5.946 38.2205 4.7 36.1765 4.7H32.1585V14.5H34.0205V10.818H36.1345C36.8625 10.818 37.3805 11.35 37.4505 12.092L37.6885 14.5H39.5225L39.2845 11.882ZM36.0925 6.254C37.1845 6.254 37.6325 6.94 37.6325 7.724C37.6325 8.508 37.1845 9.222 36.0925 9.222H34.0205V6.254H36.0925ZM45.1505 14.612C47.9925 14.612 50.0925 12.484 50.0925 9.6C50.0925 6.716 47.9925 4.588 45.1505 4.588C42.2945 4.588 40.1945 6.716 40.1945 9.6C40.1945 12.484 42.2945 14.612 45.1505 14.612ZM45.1365 13.002C43.3585 13.002 42.0565 11.56 42.0565 9.6C42.0565 7.64 43.3585 6.184 45.1365 6.184C46.9285 6.184 48.2305 7.64 48.2305 9.6C48.2305 11.56 46.9285 13.002 45.1365 13.002Z" fill="#1A1B1C"/>
<path d="M57.5 17.5H59.5C60.6046 17.5 61.5 16.6046 61.5 15.5V2.5C61.5 1.39543 60.6046 0.5 59.5 0.5H57.5" stroke="#1A1B1C"/>
</svg>
